<svg version="1.2" xmlns="http://www.w3.org/2000/svg" viewBox="0 0 1920 688" width="1920" height="688">
	<title>download</title>
	<defs>
		<clipPath clipPathUnits="userSpaceOnUse" id="cp1">
			<path d="m1922.72-375v1063h-1925.43v-1063z"/>
		</clipPath>
		<clipPath clipPathUnits="userSpaceOnUse" id="cp2">
			<path d=""/>
		</clipPath>
	</defs>
	<style>
		.s0 { fill: #ff7d2a } 
		.s1 { fill: #ee6b17 } 
		.s2 { fill: #ffffff } 
		.s3 { fill: #ff9e5f } 
		.s4 { fill: #ff9600 } 
		.s5 { fill: #ffc700 } 
		.s6 { fill: #01a98a } 
		.s7 { fill: #00d3ac } 
		.s8 { fill: none;stroke: #ffffff;stroke-linecap: round;stroke-linejoin: round;stroke-width: 8.5 } 
		.s9 { fill: #e49e00 } 
		.s10 { fill: #ffe700 } 
		.s11 { fill: #ff4b4b } 
		.s12 { fill: #ffb2b2 } 
		.s13 { fill: #8e5501 } 
		.s14 { fill: #724400 } 
		.s15 { fill: #ce7d03 } 
		.s16 { fill: none;stroke: #b46c00;stroke-width: 3.9 } 
		.s17 { fill: #eeab00 } 
		.s18 { fill: none;stroke: #fec700;stroke-linejoin: round;stroke-width: 9.7 } 
		.s19 { fill: none;stroke: #083156;stroke-width: .4 } 
		.s20 { fill: #b46c00 } 
		.s21 { fill: none;stroke: #fcc90e;stroke-width: 7.8 } 
		.s22 { fill: none;stroke: #fcc90e;stroke-linejoin: round;stroke-width: 9.7 } 
		.s23 { fill: #fef400 } 
		.s24 { fill: #1cb0f6 } 
		.s25 { fill: #ddf4ff } 
		.s26 { fill: none;stroke: #c9c7c7;stroke-linecap: round;stroke-width: 9.1 } 
		.s27 { fill: none;stroke: #60c8f9;stroke-linecap: round;stroke-width: 9.1 } 
	</style>
	<g id="Clip-Path" clip-path="url(#cp1)">
		<g>
			<g>
				<g>
					<path class="s0" d="m718 525.9c-18.9-22.5-37-44-67.3-58.1-45.5-21-79.3-23.1-110.1-24.9-31.9-1.9-60.6-3.7-95.7-26.2-38.8-24.8-54.5-48.4-70.6-72.6-12.6-18.8-25.4-38-49.6-58.6-44.7-38-91.1-51.1-146.4-51.1h-183.7v453h1928.1v-453h-183.7c-55.2 0-101.7 13.1-146.4 51.1-24.1 20.6-36.9 39.8-49.5 58.6-16.1 24.2-31.8 47.8-70.6 72.6-35.2 22.5-63.8 24.3-95.7 26.2-30.8 1.8-64.6 3.9-110.1 24.9-30.4 14.1-48.4 35.6-67.3 58.1-38.7 46.1-81.1 96.6-240.7 96.6-159.6 0-202-50.5-240.7-96.6z"/>
				</g>
			</g>
			<g style="opacity: .86">
				<g>
				</g>
			</g>
			<g>
				<g>
					<path class="s0" d="m809 458l14.4 27.6c6.2 11.9 18.6 19.3 32 19.3h209.2c13.5 0 25.8-7.4 32-19.3l14.4-27.6-145.8-4.1v-0.3l-5.2 0.1-5.1-0.1v0.3z"/>
				</g>
			</g>
			<g>
				<g>
					<path class="s1" d="m852 484.6h216c29.3 0 51.8-26 47.6-55l-41.3-286.6c-2.5-17.8-17.8-30.9-35.7-30.9h-157.2c-17.9 0-33.1 13.1-35.7 30.9l-41.3 286.6c-4.2 29 18.3 55 47.6 55z"/>
				</g>
			</g>
			<g>
				<g>
					<path class="s2" d="m1109.7 430.4c3.6 25.4-16.1 48.2-41.7 48.2h-216c-25.6 0-45.3-22.8-41.7-48.2l41.3-286.5c2.2-14.8 14.9-25.8 29.8-25.8h157.2c14.9 0 27.6 11 29.8 25.8z"/>
				</g>
			</g>
			<g>
				<g>
					<path class="s3" d="m1068.4 144.4h-216.8v-0.5c2.2-14.8 14.9-25.8 29.8-25.8h157.2c14.9 0 27.6 11 29.8 25.8z"/>
				</g>
			</g>
			<g>
				<g>
					<path class="s4" d="m1248.6 108.6l25.7-25.7c4.4-3.2 10.7-0.4 11.2 5l1.8 6.6 22.6-7.4c4.1-2.6 9.5-0.4 10.6 4.3 0 0 10.5 39.2 11.3 46.9 2 11.9 0.8 24.7-4.8 36.3-12.7 26.2-44.3 37.2-70.6 24.4-26.2-12.7-37.2-44.3-24.4-70.6 3.9-8.1 9.7-14.8 16.6-19.8z"/>
				</g>
			</g>
			<g>
				<g>
					<path class="s5" d="m1294.4 136c2-1.8 5.2-0.8 5.8 1.8l5.2 20.8c0.8 4.6 1 9.2-1.1 14.3-4.8 11.9-15.8 17.2-24.9 13.5-9.1-3.7-12.9-14.8-8-26.8 2-4.9 5-8.5 8.3-11.5 2.9-2.9 14.7-12.1 14.7-12.1z"/>
				</g>
			</g>
			<g>
				<g>
					<path class="s6" d="m1463.5 378.8c66.5-1.1 115.4-14.9 119.1-35.5q0-0.1 0-0.2c0 0 1.9-18.6 0.7-22.8 0 0.1-30.8 0.5-30.8 0.5-22.1-6.4-53.9-10-89.3-9.4-35.3 0.6-67.1 5.4-89.2 12.6 0 0-31.6 2.7-31.6 2.7-0.4 3 2 21.7 2 21.7 4.7 17.9 47.9 31.5 119.1 30.4z"/>
				</g>
			</g>
			<g>
				<g>
					<path class="s7" d="m1583.8 322.4c0.1 18.8-53.9 35-120.6 36.3-66.7 1.3-120.8-13-120.9-31.8 0-18.8 54-35 120.7-36.3 66.6-1.3 120.8 13 120.8 31.8z"/>
				</g>
			</g>
			<g>
				<g>
					<path class="s8" d="m1428 317.3l30.1 15.5 51.6-23.4"/>
				</g>
			</g>
			<g>
				<g>
					<path class="s9" d="m1232.1 333c56.9-14.8 100-38.7 96.5-53.5q-0.1 0-0.1-0.1l-4.7-18-26.9 7c-20.3-0.5-48.5 3.2-78.7 11.1-30.3 7.8-56.7 18.3-74.2 28.5l-27 7 4.7 18.2c4.1 14.6 53.4 14.5 110.4-0.2z"/>
				</g>
			</g>
			<g>
				<g>
					<path class="s5" d="m1323.8 261.3c3.9 14.8-39.3 38.8-96.4 53.6-57.1 14.8-106.5 14.9-110.4 0.1-3.8-14.8 39.4-38.8 96.5-53.6 57.1-14.8 106.5-14.8 110.3-0.1z"/>
				</g>
			</g>
			<g>
				<g>
				</g>
			</g>
			<g>
				<g>
				</g>
			</g>
			<g>
				<g>
				</g>
			</g>
			<g>
				<g>
					<path class="s10" d="m1189 277.9c0.9-0.8 0.1-2.2-1-1.8-16.6 5.6-31 11.8-42.1 18-8.4 4.6-14.5 9.1-18.1 12.8-3.1 3.2-3.3 4.2-3.1 5.1 0.2 0.7 0.9 1.7 5.2 3 3.1 0.9 7.3 1.6 12.4 2 0.8 0.1 1.7-0.2 2.3-0.7z"/>
				</g>
			</g>
			<g>
				<g>
					<path class="s10" d="m1161.2 315.2c-0.7 0.7-0.2 1.9 0.8 1.9 5.5-0.3 11.4-0.9 17.6-1.7 0.7-0.1 1.3-0.4 1.8-0.8l53.1-49.1c0.8-0.7 0.1-2-0.9-1.8q-9 1.9-18.4 4.3-1.3 0.3-2.5 0.7-0.8 0.2-1.4 0.7z"/>
				</g>
			</g>
			<g>
				<g>
					<path class="s9" d="m614.4 72.9c24.9 3.6 45.8 1.4 46.9-5q0 0 0-0.1l1.2-7.8-11.8-1.8c-7.9-3.5-19.6-6.7-32.8-8.7-13.2-1.9-25.4-2.2-34-1.1l-11.7-1.7-1.2 7.9c-0.8 6.5 18.6 14.6 43.4 18.3z"/>
				</g>
			</g>
			<g>
				<g>
					<path class="s5" d="m662.5 59.9c-1 6.5-22 8.8-46.9 5.1-24.9-3.7-44.4-11.9-43.4-18.3 0.9-6.5 21.9-8.7 46.8-5.1 25 3.7 44.4 11.9 43.5 18.3z"/>
				</g>
			</g>
			<g>
				<g>
					<path class="s10" d="m604.3 44.8c1-0.3 0.8-1.7-0.2-1.8-6.5-0.4-12.3-0.3-17.1 0.2-4.1 0.5-7.2 1.2-9.3 2.1-1.7 0.7-1.9 1.1-2 1.5-0.1 0.3 0.1 0.8 1.5 2q1.5 1.2 4 2.6c0.7 0.3 1.5 0.4 2.2 0.2z"/>
				</g>
			</g>
			<g>
				<g>
					<path class="s10" d="m590.8 53.6c-0.8 0.3-0.8 1.5 0 1.8q2.6 0.9 5.5 1.7c0.5 0.2 1.1 0.2 1.7 0l26.9-9.8c0.9-0.3 0.9-1.6-0.1-1.8q-3-0.5-6.2-1-0.4-0.1-0.7-0.1-0.7-0.1-1.4 0.1z"/>
				</g>
			</g>
			<g>
				<g>
					<path class="s9" d="m580.6 158c35 6.9 64.8 5.2 66.8-3.8q0 0 0-0.1l2.2-11.1-16.6-3.2c-11-5.6-27.3-11-46-14.7-18.6-3.6-35.7-4.9-48-3.9l-16.6-3.2-2.2 11.1c-1.6 9.1 25.4 22 60.4 28.9z"/>
				</g>
			</g>
			<g>
				<g>
					<path class="s5" d="m649.6 143c-1.8 9.1-31.7 10.8-66.9 3.9-35.1-6.9-62.1-19.9-60.3-29 1.8-9 31.7-10.8 66.8-3.9 35.1 7 62.2 19.9 60.4 29z"/>
				</g>
			</g>
			<g>
				<g>
					<path class="s10" d="m569.5 117.1c1.1-0.3 1-1.9-0.1-2-9.8-1.1-18.5-1.4-25.7-1-5.8 0.3-10.3 1.2-13.3 2.3-2.5 0.9-2.9 1.4-3 1.9-0.1 0.4 0.1 1.2 2 3q2.1 1.9 5.8 4.1c0.8 0.5 1.6 0.6 2.5 0.4z"/>
				</g>
			</g>
			<g>
				<g>
					<path class="s10" d="m547.6 129.4c-1 0.2-1 1.6-0.1 1.9q4 1.7 8.6 3.2c0.7 0.2 1.3 0.2 2 0l40.1-12.3c1-0.3 1-1.8 0-2q-4.8-1.1-9.8-2.1-0.6-0.2-1.2-0.3-0.8-0.1-1.5 0.1z"/>
				</g>
			</g>
			<g>
				<g>
				</g>
			</g>
			<g>
				<g>
				</g>
			</g>
			<g>
				<g>
				</g>
			</g>
			<g>
				<g>
				</g>
			</g>
			<g>
				<g>
					<path class="s11" d="m741.5 93.7c-5.5-1.9-10.6-2.5-17-0.7-13.6 3.9-21.4 19.2-17.2 33.5 2.4 8.3 9.3 15.3 16.4 18.9 0 0 30.2 14.4 34.2 15.8 3.1 1.3 6.8 0.3 8.7-2.9 0 0 17.2-25.9 19-33.1 3.2-6.9 4.9-15.4 2.8-24.5-3.5-14.5-19.6-22.7-33-18.2-6.5 2.1-10.7 5.8-13.9 11.2z"/>
				</g>
			</g>
			<g>
				<g>
					<path class="s12" d="m741.4 113.7c1.6 5.4-1.5 11-6.8 12.6-5.4 1.6-11-1.5-12.6-6.9-1.6-5.3 1.5-10.9 6.8-12.5 5.4-1.6 11 1.4 12.6 6.8z"/>
				</g>
			</g>
			<g>
				<g>
					<path class="s13" d="m440.6 189.2c0.3-1.7-0.7-3.4-2.3-4.1l-102.5-44c-2.3-1-5 0.5-5.4 3.1l-8.3 58.3c-0.3 1.7 0.7 3.4 2.3 4.1l102.5 43.9c2.3 1.1 5-0.4 5.4-3z"/>
				</g>
			</g>
			<g>
				<g>
					<path class="s14" d="m436 189.5l-51.2 25.1-54.9-23.3-1.6 11.6 99.9 40.8z"/>
				</g>
			</g>
			<g>
				<g>
					<path class="s15" d="m296.3 157.7l34.4-15.5-9.1 63.2-34.4 16z"/>
				</g>
			</g>
			<g>
				<g>
					<path class="s15" d="m394.2 267.2l-107-45.8 34.4-16 107.1 45.8z"/>
				</g>
			</g>
			<g>
				<g>
					<path class="s16" d="m410.6 258.8l-106.2-45.4 8.4-58.2"/>
				</g>
			</g>
			<g>
				<g>
					<path class="s17" d="m395.3 268.1c-1 0.5-2.2 0.5-3.2 0.1l-19.4-8.3c-1.6-0.6-1.6-2.8-0.1-3.5l32.3-15.2 25.7 6-0.1 3.4z"/>
				</g>
			</g>
			<g>
				<g>
					<path class="s17" d="m294.4 176c-1.5 0.6-3-0.5-2.8-2.1l1.9-13c0.2-1.3 1-2.5 2.2-3l37-17.1 2.9 2.9-7.3 16.7z"/>
				</g>
			</g>
			<g>
				<g>
					<path class="s18" d="m428.4 245.7l8-56.8-101.3-42.8-8.1 56.3z"/>
				</g>
			</g>
			<g>
				<g>
					<path class="s15" d="m360.6 80.8c-0.1 1.1 120.3 53.1 119.9 52.8-17.6-10.6-40-21.4-57.3-29.1-41.2-18.9-62.6-24.4-62.6-23.7z"/>
					<path class="s19" d="m360.6 80.8c-0.1 1.1 120.3 53.1 119.9 52.8-17.6-10.6-40-21.4-57.3-29.1-41.2-18.9-62.6-24.4-62.6-23.7z"/>
				</g>
			</g>
			<g>
				<g>
					<path class="s17" d="m287.3 206.2c0.2-1.2 0.9-2.2 2-2.7l35-16.4-2.1 14.6c-0.3 2.2 0.9 4.3 3 5.2l21.6 9-35.4 16.6c-0.9 0.4-1.9 0.5-2.8 0.1l-20.2-8.5c-2-0.8-3.3-2.9-2.9-5.1z"/>
				</g>
			</g>
			<g>
				<g>
					<path class="s20" d="m372.4 81.8c-20.4-4.9-41.4 6-45.2 27.4-4.1 22.7 11.1 40.1 33.9 43.3 22.8 3.3 40-5.5 43.2-28.4 3.3-22.8-11.3-37.5-31.9-42.3z"/>
				</g>
			</g>
			<g>
				<g>
					<path class="s21" d="m330.2 112.2c-2.2 21.7 10.1 36.4 30.8 39.3 20.7 3 42.6-14.9 39.3-33.6-2.9-18.4-19.2-33.6-36.5-34.1-17.8-0.2-31.7 13.7-33.6 28.4z"/>
				</g>
			</g>
			<g>
				<g>
					<path class="s13" d="m442.6 179.4l-109.9-47.1 40.9-43.4 109.9 47.1z"/>
				</g>
			</g>
			<g>
				<g>
					<path class="s14" d="m435.9 181.4c-5.6-8.3-4.1-21.6 0.6-29.9 7.8-15.4 22.7-22.1 39.2-18.7 3.2 0.8 5 2 7.9 3.3z"/>
				</g>
			</g>
			<g>
				<g>
					<path class="s22" d="m444.5 175.8c-1.7 2.3-9 4.1-11.6 3.1l-91.5-39.2c-5.8-2.5-7.1-8.9-3.3-13.9l32.8-34.8c3.1-3.2 8-3.4 12.1-1.6l91.7 40c5.8 2.5 7 9.6 3.1 13.5z"/>
				</g>
			</g>
			<g id="Clip-Path" clip-path="url(#cp2)">
				<g>
					<g>
						<g>
							<path class="s10" d="m422.2 90.6l21.3 54.4 32.9 45.2 54.5-58.5z"/>
						</g>
					</g>
				</g>
			</g>
			<g>
				<g>
					<path class="s23" d="m442.8 170.8l5.5 7.9c0 0-2.7 2.5-4.6 3.5-0.1-0.1-5.3-8.1-5.3-8.1z"/>
				</g>
			</g>
			<g>
				<g>
					<path class="s23" d="m420.5 110.7l-5.4-12.6-10.7-4.8 5.8 12.9z"/>
				</g>
			</g>
			<g>
				<g>
					<path class="s24" d="m444.2 212.7c-2.2-1.5-5-1.7-7.4-0.6l-18.4 8.7c-2.3 1.1-4 3.4-4.3 6l-1.7 14.9c-0.3 2.9 1 5.7 3.4 7.2l12.6 8.2c2.2 1.4 5 1.6 7.4 0.5l18.4-8.6c2.4-1.2 4-3.5 4.3-6.2l1.4-14.8c0.3-2.8-1-5.5-3.3-7z"/>
				</g>
			</g>
			<g>
				<g>
					<path class="s25" d="m452.6 223.3l-10.5-6.6c-1.2-0.8-2.9-0.2-3.2 1.2l-1.6 6.1c-0.3 0.9 0.1 1.9 1 2.4l6 3.5c0.6 0.4 1.3 0.4 2 0.1l6.1-2.9c1.5-0.7 1.7-2.9 0.2-3.8z"/>
				</g>
			</g>
			<g>
				<g>
					<path class="s24" d="m467.4 250.9c-2.6 0.8-4.5 2.9-5.1 5.5l-6.7 28.8c-0.6 2.6 0.2 5.3 2.1 7.1l16.1 16c2 2.1 5 2.8 7.8 1.8l21.5-7.2c2.5-0.9 4.4-2.9 5-5.5l6.7-28.8c0.6-2.6-0.2-5.3-2.2-7.2l-16.2-15.6c-2-2-4.9-2.6-7.6-1.8z"/>
				</g>
			</g>
			<g>
				<g>
					<path class="s25" d="m487.8 250.1l-17.6 6.1c-1.4 0.5-1.9 2.2-1 3.4l5.9 7.8c0.5 0.8 1.6 1.1 2.5 0.7l9.3-3.6c0.7-0.3 1.2-0.9 1.3-1.6l2.4-10.3c0.4-1.7-1.2-3.1-2.8-2.5z"/>
				</g>
			</g>
			<g>
				<g>
					<path class="s24" d="m343.8 329.2c-1.6 2.2-1.9 5-0.8 7.5l16.5 37.4c1.1 2.4 3.3 4.1 5.9 4.4l31.8 4.4c2.9 0.4 5.7-0.8 7.3-3.2l18.2-26.5c1.5-2.2 1.7-4.9 0.7-7.3l-16.5-37.4c-1.1-2.5-3.4-4.2-6.1-4.5l-31.5-3.9c-2.8-0.3-5.5 0.9-7.1 3.2z"/>
				</g>
			</g>
			<g>
				<g>
					<path class="s25" d="m365.7 310.5l-14.6 21.8c-0.9 1.2-0.3 2.9 1.2 3.3l13.5 3.9c0.9 0.2 1.9-0.1 2.4-1l7.3-11.7c0.3-0.6 0.4-1.4 0.1-2.1l-6.2-13.9c-0.6-1.6-2.8-1.7-3.7-0.3z"/>
				</g>
			</g>
			<g>
				<g>
					<path class="s24" d="m1477.3 67c-11.4 9.9-24.3 14.3-30.6 10.9-4.6-2.5-9.7-7.7-11-12.8-2.3-6.8 3.9-18.8 15.3-28.6 11.5-10 24.5-14.3 30.8-10.8 4.5 2.1 8.7 7.3 10.5 12 3.1 6.6-3.1 19.1-15 29.3z"/>
				</g>
			</g>
			<g>
				<g>
					<path class="s24" d="m1484.1 77.6c-14.2 12.2-29.3 18.5-36.1 15.4-5.1-2.2-10.2-7.4-11.1-12.9-1.9-7.2 6.6-21.1 20.7-33.3 14.3-12.3 29.5-18.6 36.2-15.4 5 1.7 9.1 7 10.7 12 2.7 7-5.8 21.5-20.4 34.2z"/>
				</g>
			</g>
			<g>
				<g>
					<path class="s26" d="m1489.9 86.1l-16.5-20.7"/>
				</g>
			</g>
			<g>
				<g>
					<path class="s24" d="m1509.4 112.9c-14.2 12.2-29.3 18.5-36.1 15.5-5-2.2-10.1-7.5-11.1-13-1.8-7.2 6.6-21.1 20.7-33.3 14.3-12.3 29.5-18.6 36.3-15.4 4.9 1.8 9.1 7.1 10.6 12.1 2.8 6.9-5.7 21.5-20.4 34.1z"/>
				</g>
			</g>
			<g>
				<g>
					<path class="s24" d="m1517.6 123.7c-11.4 9.9-24.3 14.2-30.6 10.9-4.7-2.5-9.7-7.8-11-12.9-2.3-6.7 3.9-18.7 15.3-28.5 11.5-10 24.5-14.3 30.8-10.8 4.5 2.1 8.7 7.3 10.5 12 3.1 6.6-3.1 19.1-15 29.3z"/>
				</g>
			</g>
			<g>
				<g>
					<path class="s27" d="m1496.3 114c-3.4 2.8-6.4 8.1-7 10.4m-12.3-21.4c-3.5 2.8-6.5 8.1-7 10.4m-18.3-45.2c-3.4 2.8-6.4 8.1-7 10.4"/>
				</g>
			</g>
			<g style="opacity: .86">
				<g>
				</g>
			</g>
			<g>
				<g>
				</g>
			</g>
			<g>
				<g>
				</g>
			</g>
		</g>
	</g>
</svg>